<svg width="97" height="100" viewBox="0 0 97 100" fill="none" xmlns="http://www.w3.org/2000/svg">
<path d="M94.8191 49.5187C94.8191 75.7625 74.0408 97.0373 48.4095 97.0373C22.7783 97.0373 2 75.7625 2 49.5187C2 23.2748 22.7783 2 48.4095 2C74.0408 2 94.8191 23.2748 94.8191 49.5187Z" fill="#E1E2EA"/>
<path d="M77.3565 49.5187C77.3565 65.9233 64.3744 79.1813 48.4095 79.1813C32.4447 79.1813 19.4626 65.9233 19.4626 49.5187C19.4626 33.114 32.4447 19.856 48.4095 19.856C64.3744 19.856 77.3565 33.114 77.3565 49.5187ZM48.4095 98.0373C74.6152 98.0373 95.8191 76.2924 95.8191 49.5187C95.8191 22.7449 74.6152 1 48.4095 1C22.2038 1 1 22.7449 1 49.5187C1 76.2924 22.2038 98.0373 48.4095 98.0373Z" fill="#313245" stroke="#E1E2EA" stroke-width="2"/>
<ellipse cx="48.6551" cy="49.838" rx="7.6551" ry="7.83805" fill="#6649F8"/>
</svg>
